<svg xmlns="http://www.w3.org/2000/svg" viewBox="0 0 512 512"><defs><style>.cls-1{fill:#fff;}.cls-2{fill:#009fe3;}</style></defs><g id="Capa_2" data-name="Capa 2"><g id="Capa_1-2" data-name="Capa 1"><path class="cls-1" d="M93.89,312.52q-21.27,20.79-21.27,52.87t19.81,51.06q21.27,21.18,57.94,21.15H179q5.15,0,5.14,5.15v64.1c0,3.44-1.71,5.15-5.14,5.15H146q-66.73,0-106.36-39.13T0,365Q0,305,47,258.2,0,218,0,145.55,0,80.45,40.34,40.22T148.17,0h31.54q4.41,0,4.41,4.42V70q0,4.43-5.14,4.42H149.63q-36.66,0-56.83,20T72.62,146.6q0,29.91,20.53,51.05,22.75,22.62,56.48,22.61H179c3.43,0,5.14,1.71,5.14,5.11v61.26c0,3.4-1.71,5.11-5.14,5.11H150.37Q115.17,291.74,93.89,312.52Z"/><path class="cls-1" d="M360.16,73.66H331.55c-3.43,0-5.13-1.71-5.13-5.16V5.14c0-3.42,1.7-5.14,5.13-5.14h33q63.07,0,104.16,38Q512,78.22,512,145.5q0,66.52-45.48,108.22-42.54,38.75-102,38.75h-33c-3.43,0-5.13-1.7-5.13-5.11V224.64c0-3.4,1.7-5.11,5.13-5.11h28.61q33.73,0,55-20.78t21.27-52.15q0-30.63-20.54-51.79T360.16,73.66Z"/><path class="cls-2" d="M286.06,512H220.41q-5.1,0-5.1-4.39V5.11q0-5.11,4.37-5.11h67.09q4.39,0,4.39,3.65V506.88C291.16,510.3,289.44,512,286.06,512Z"/></g></g></svg>